<svg xmlns="http://www.w3.org/2000/svg" width="44" height="44" fill="none" viewBox="0 0 44 44"><path fill="#fff" d="M22.001 3.667C11.881 3.667 3.668 11.88 3.668 22s8.213 18.334 18.333 18.334S40.335 32.12 40.335 22 32.12 3.667 22 3.667m8.507 12.467c-.275 2.896-1.467 9.936-2.072 13.181-.256 1.375-.77 1.834-1.246 1.889-1.064.091-1.87-.697-2.897-1.375-1.613-1.064-2.53-1.724-4.088-2.75-1.815-1.192-.642-1.852.403-2.915.275-.275 4.968-4.547 5.06-4.932a.37.37 0 0 0-.092-.33c-.11-.092-.256-.055-.385-.037-.165.037-2.731 1.742-7.736 5.115-.734.495-1.394.752-1.98.734-.66-.019-1.907-.367-2.842-.679-1.155-.366-2.053-.568-1.98-1.21.037-.33.495-.66 1.357-1.008 5.353-2.328 8.91-3.868 10.688-4.602 5.097-2.126 6.142-2.493 6.838-2.493.147 0 .495.037.715.22a.73.73 0 0 1 .257.495c-.018.11.018.44 0 .697"/></svg>