<svg xmlns="http://www.w3.org/2000/svg" width="44" height="44" fill="none" viewBox="0 0 44 44"><path fill="#fff" d="M7.81 7.81C5.5 10.142 5.5 13.871 5.5 21.34v1.32c0 7.458 0 11.187 2.31 13.53 2.332 2.31 6.061 2.31 13.53 2.31h1.32c7.458 0 11.187 0 13.53-2.31 2.31-2.332 2.31-6.061 2.31-13.53v-1.32c0-7.458 0-11.187-2.31-13.53C33.858 5.5 30.129 5.5 22.66 5.5h-1.32c-7.458 0-11.187 0-13.53 2.31m3.256 7.733h3.784c.121 6.292 2.893 8.954 5.093 9.504v-9.504h3.553v5.423c2.167-.231 4.455-2.706 5.225-5.434h3.542a10.5 10.5 0 0 1-4.818 6.853 10.85 10.85 0 0 1 5.643 6.886h-3.905c-.836-2.607-2.926-4.631-5.687-4.906v4.906h-.44c-7.524 0-11.814-5.148-11.99-13.728"/></svg>