<svg xmlns="http://www.w3.org/2000/svg" width="111" height="32" fill="none" viewBox="0 0 111 32"><path fill="#fff" d="M13.533 27.457h4.802V0H11.35C4.326 0 .635 3.595.635 8.889c0 4.227 2.024 6.716 5.635 9.284L0 27.457h5.199l6.984-10.39-2.42-1.62c-2.937-1.975-4.366-3.516-4.366-6.835 0-2.923 2.064-4.898 5.993-4.898h2.143zm63.06-1.343v-3.832c-1.469.987-3.93 1.856-6.23 1.856-3.454 0-4.763-1.62-4.962-4.938h11.39v-2.489c0-6.913-3.056-9.52-7.778-9.52-5.755 0-8.493 4.384-8.493 10.39 0 6.913 3.413 10.27 9.445 10.27 3.016 0 5.239-.79 6.628-1.737m29.526 1.738c2.182 0 3.73-.395 4.881-1.225v-3.832c-1.191.83-2.619 1.343-4.604 1.343-3.373 0-4.762-2.607-4.762-6.716 0-4.306 1.707-6.518 4.802-6.518 1.826 0 3.612.632 4.564 1.224v-3.99c-.992-.553-2.738-.948-5.08-.948-6.032 0-9.167 4.306-9.167 10.35 0 6.638 3.056 10.312 9.366 10.312M33.336 7.585v7.862h-6.31V7.585h-4.723v19.872h4.723V19.16h6.31v8.297h4.722V7.585zm26.033 16.158h-2.103V7.585h-13.77v1.699c0 4.86-.318 11.14-1.985 14.46h-1.469V32h4.366v-4.543h10.596V32h4.365zm32.304 3.714h5.358L89.45 16.75l6.667-9.166h-4.762l-6.667 9.166V7.585h-4.723v19.872h4.723v-9.758zm-22.74-16.553c2.342 0 3.056 1.935 3.056 4.424v.396h-6.588c.12-3.161 1.27-4.82 3.532-4.82m-16.39 12.84h-6.667c1.31-3.003 1.667-8.416 1.667-11.853V11.3h5z"/></svg>